<svg id="visual" viewBox="0 0 960 540" width="960" height="540" xmlns="http://www.w3.org/2000/svg" xmlns:xlink="http://www.w3.org/1999/xlink" version="1.1"><rect x="0" y="0" width="960" height="540" fill="#1F202F"></rect><path d="M0 402L22.8 399.2C45.7 396.3 91.3 390.7 137 395.2C182.7 399.7 228.3 414.3 274 420.2C319.7 426 365.3 423 411.2 419.3C457 415.7 503 411.3 548.8 399.8C594.7 388.3 640.3 369.7 686 361.8C731.7 354 777.3 357 823 362.8C868.7 368.7 914.3 377.3 937.2 381.7L960 386L960 541L937.2 541C914.3 541 868.7 541 823 541C777.3 541 731.7 541 686 541C640.3 541 594.7 541 548.8 541C503 541 457 541 411.2 541C365.3 541 319.7 541 274 541C228.3 541 182.7 541 137 541C91.3 541 45.7 541 22.8 541L0 541Z" fill="#1F202F" stroke-linecap="round" stroke-linejoin="miter"></path></svg>